<?xml version="1.0" encoding="UTF-8" standalone="no"?>
<!-- Created with Inkscape (http://www.inkscape.org/) -->

<svg
   xmlns:dc="http://purl.org/dc/elements/1.1/"
   xmlns:cc="http://creativecommons.org/ns#"
   xmlns:rdf="http://www.w3.org/1999/02/22-rdf-syntax-ns#"
   xmlns:svg="http://www.w3.org/2000/svg"
   xmlns="http://www.w3.org/2000/svg"
   xmlns:sodipodi="http://sodipodi.sourceforge.net/DTD/sodipodi-0.dtd"
   xmlns:inkscape="http://www.inkscape.org/namespaces/inkscape"
   width="300mm"
   height="300mm"
   viewBox="20 20 260 260"
   id="svg6743"
   version="1.1"
   inkscape:version="0.91+devel+osxmenu r12911"
   sodipodi:docname="osmus-logo.svg">
  <defs
     id="defs6745" />
  <sodipodi:namedview
     id="base"
     pagecolor="#ffffff"
     bordercolor="#666666"
     borderopacity="1.0"
     inkscape:pageopacity="0.0"
     inkscape:pageshadow="2"
     inkscape:zoom="0.35"
     inkscape:cx="514.28571"
     inkscape:cy="560"
     inkscape:document-units="mm"
     inkscape:current-layer="layer1"
     showgrid="false"
     inkscape:window-width="1292"
     inkscape:window-height="751"
     inkscape:window-x="43"
     inkscape:window-y="23"
     inkscape:window-maximized="0" />
  <metadata
     id="metadata6748">
    <rdf:RDF>
      <cc:Work
         rdf:about="">
        <dc:format>image/svg+xml</dc:format>
        <dc:type
           rdf:resource="http://purl.org/dc/dcmitype/StillImage" />
        <dc:title></dc:title>
      </cc:Work>
    </rdf:RDF>
  </metadata>
  <g
     inkscape:label="Layer 1"
     inkscape:groupmode="layer"
     id="layer1"
     transform="translate(0,3)">
    <g
       id="g7426"
       transform="translate(322.142,-53.972906)">
      <path
         style="display:inline;fill:#76c551;fill-opacity:1;fill-rule:nonzero;stroke:none;stroke-width:3.61531901"
         id="path33449"
         inkscape:connector-curvature="0"
         d="m -81.063095,208.94609 c -11.906339,9.92421 -27.194885,15.8987 -43.860635,15.8987 -4.95854,0 -9.78728,-0.55158 -14.45059,-1.55504 l -4.79842,5.8446 c -10.66449,-2.85736 -20.38429,-7.94043 -28.6326,-14.74578 l -12.89559,12.92212 1.58177,9.54347 -47.96347,47.98965 4.63827,1.7685 45.04032,-17.15658 45.0402,17.15658 45.040312,-17.15658 17.158544,-45.03976 -5.898111,-15.46988 z" />
      <path
         d="m -272.48495,89.294626 17.1585,45.040274 -17.1585,45.03993 17.1585,45.03972 -17.1585,45.03977 10.53634,4.02267 57.2385,-57.21102 10.26764,1.58169 12.46673,-12.46669 c -7.35519,-8.52221 -12.86173,-18.6902 -15.87027,-29.92032 l 5.8446,-4.79842 c -1.00531,-4.66323 -1.55503,-9.49189 -1.55503,-14.45044 0,-24.76984 13.21043,-46.53472 32.94893,-58.606534 l -21.79693,-8.31063 -45.04019,17.158544 -45.04032,-17.158544 z"
         inkscape:connector-curvature="0"
         id="path33447"
         style="display:inline;fill:#76c551;fill-opacity:1;fill-rule:nonzero;stroke:none;stroke-width:3.61531901" />
      <path
         style="display:inline;fill:#59a336;fill-opacity:1;fill-rule:nonzero;stroke:none;stroke-width:3.61531901"
         id="path33451"
         inkscape:connector-curvature="0"
         d="m -81.063095,208.94609 c -11.906339,9.92421 -27.194885,15.8987 -43.860635,15.8987 -4.95854,0 -9.78728,-0.55158 -14.45059,-1.55504 l -4.79842,5.8446 -28.67744,-15.11228 -12.85075,13.28862 1.58177,9.54347 46.85284,7.05799 -0.0982,42.70016 45.040313,-17.15658 17.158544,-45.03976 z"
         sodipodi:nodetypes="cscccccccccc" />
      <ellipse
         style="opacity:1;fill:#ffffff;fill-opacity:1;stroke:none;stroke-width:12.70484924;stroke-linecap:butt;stroke-linejoin:miter;stroke-miterlimit:4;stroke-dasharray:none;stroke-dashoffset:0;stroke-opacity:1;marker:none"
         id="ellipse33453"
         cx="-122.83165"
         cy="155.70955"
         rx="59.801929"
         ry="60.929199" />
      <path
         style="opacity:1;fill:#cccccc;fill-opacity:1;stroke:none;stroke-width:12.70484924;stroke-linecap:butt;stroke-linejoin:miter;stroke-miterlimit:4;stroke-dasharray:none;stroke-dashoffset:0;stroke-opacity:1;marker:none"
         d="m -70.867543,179.77128 c -4.021615,-66.77094 -70.182367,-83.311142 -110.499567,-45.77004 21.03677,-28.56709 48.05279,-46.045197 78.56638,-33.40602 30.51362,12.63913 41.797793,45.98173 31.933187,79.17606 z"
         id="path33455"
         inkscape:connector-curvature="0"
         sodipodi:nodetypes="ccsc" />
      <path
         inkscape:export-ydpi="90"
         inkscape:export-xdpi="90"
         inkscape:export-filename="/Users/tristen/Desktop/mapping-dc.png"
         inkscape:connector-curvature="0"
         id="path33457"
         d="m -73.395575,102.22726 c -28.338185,-28.338264 -74.283665,-28.338264 -102.621895,0 -17.93779,17.93776 -24.48523,42.91327 -19.71413,66.02883 l -11.27485,8.16937 c 5.13477,13.61756 12.1317,21.8574 16.91241,26.2963 l -10.22839,10.22834 -10.80252,0 -81.01705,81.01654 27.00583,27.00561 81.01701,-81.01683 0,-10.80225 10.19464,-10.19425 c 4.56162,4.75244 12.69997,11.38138 25.75686,16.30469 l 7.86543,-10.90386 c 23.35858,5.12197 48.742245,-1.34701 66.906498,-19.5115 28.338386,-28.33732 28.33819,-74.28276 1.57e-4,-102.62099 z m -12.962835,12.96296 c 21.179095,21.17921 21.179095,55.51685 0,76.69579 -21.17902,21.17897 -55.51721,21.17897 -76.6963,0 -21.17898,-21.17894 -21.17898,-55.51658 0,-76.69579 21.17929,-21.179216 55.51728,-21.179216 76.6963,0 z"
         style="color:#000000;display:inline;overflow:visible;visibility:visible;fill:#2f2f2f;fill-opacity:1;fill-rule:nonzero;stroke:none;stroke-width:7.76058722;marker:none;enable-background:accumulate" />
    </g>
  </g>
</svg>
