<?xml version="1.0" encoding="UTF-8"?>
<svg width="500px" height="500px" viewBox="0 0 500 500" version="1.1" xmlns="http://www.w3.org/2000/svg" xmlns:xlink="http://www.w3.org/1999/xlink">
    <path d="M456.291971,0 L500,114.07767 L456.291971,228.15534 L500,341.626214 L456.587467,456.570348 L342.63176,500 L228.676335,456.570348 L114.720607,500 L1.08620195,455.737864 L1,455.841232 L1.04492214,455.722087 L1,455.703883 L1.09591484,455.587379 L44.386183,341.881312 L1,227.921519 L44.386183,113.961195 L1,0 L114.886853,43.4146598 L228.773377,0 L342.772506,43.6893204 L456.291971,0 Z M250.20245,101 C208.711618,101 173.758856,115.421767 145.284365,144.454667 L144.52495,145.214565 C130.728247,159.119318 119.751858,175.566648 112.205318,193.650133 C104.730391,211.8094 101.001422,230.746067 101.001422,250.5 C100.915487,270.006744 104.72409,289.334572 112.205318,307.349867 C119.680246,325.329733 130.523874,341.505633 144.756137,355.917433 C159.167797,370.1598 175.353507,381.143067 193.3332,388.7875 C211.492291,396.272467 230.428774,400 250.192483,400 C269.924204,400 289.460156,396.088151 307.669694,388.4885 C326.211977,380.808793 343.067993,369.566825 357.28328,355.399167 C371.356077,341.695 381.990408,325.977567 389.106539,308.187067 C396.412035,290.2072 400,270.9815 400,250.5 C400,230.207867 396.402068,211.0021 389.126472,193.022233 C381.849594,174.918021 370.948968,158.492308 357.093915,144.753667 C327.712466,115.571267 292.022178,101 250.20245,101 Z M250.800444,127.91 C284.626983,127.91 313.480204,139.8999 337.509605,163.9096 L337.499638,163.929533 C348.882327,175.21642 357.8868,188.670731 363.980815,203.4972 C370.04049,218.2678 373.09026,233.955333 373.09026,250.5 C373.09026,284.8551 361.329708,313.359767 338.027866,336.143567 C326.272462,347.679093 312.410174,356.848525 297.194828,363.153233 C282.244973,369.3824 266.836655,372.472067 250.81041,372.472067 C234.614734,372.472067 219.106751,369.422267 204.336294,363.3725 C189.485011,357.095348 175.975475,348.028003 164.539779,336.661833 C153.025543,325.24803 143.791326,311.744971 137.331042,296.8749 C131.101936,281.934867 127.912463,266.516433 127.912463,250.5 C127.885571,234.526361 131.085727,218.711878 137.321075,204.0055 C143.779907,188.97898 153.014117,175.305049 164.539779,163.7003 C187.851586,139.87 216.625075,127.91 250.800444,127.91 Z M250.501447,164.4478 C201.146991,164.4478 188.728645,211.022033 188.728645,250.5 C188.728645,289.987933 201.137024,336.5522 250.501447,336.5522 C299.855902,336.5522 312.264282,289.987933 312.264282,250.5 C312.264282,211.022033 299.855902,164.4478 250.501447,164.4478 Z M275.098942,224.746133 C276.843092,234.015133 277.092256,243.692767 277.092256,250.5 C277.092256,267.891833 275.886301,304.1107 250.511413,304.1107 C248.508133,304.1107 246.674284,303.9014 244.960034,303.472833 L244.01321,303.163867 C243.494948,303.014367 242.946787,302.844933 242.448458,302.6456 C236.797413,300.243633 233.239347,295.8882 238.362164,288.193933 Z M250.501447,196.899267 C252.374746,196.913139 254.239219,197.157498 256.052826,197.626833 L256.04286,197.626833 C259.610892,200.696567 261.345075,204.922433 257.936508,210.8227 L225.06676,271.2207 C224.050169,263.576267 223.910637,256.0913 223.910637,250.490033 C223.910637,233.108167 225.116592,196.899267 250.501447,196.899267 Z" fill="#68707f" fill-rule="nonzero"></path>
</svg>
